<svg width="48" height="48" viewBox="0 0 48 48" fill="none" xmlns="http://www.w3.org/2000/svg">
<path d="M24 6C27.6161 6 30.9606 6.70475 34.0335 8.11425C37.1064 9.52376 39.5358 11.4404 41.3214 13.8642C43.1071 16.2878 44 18.9316 44 21.7954C44 24.6591 43.1071 27.3066 41.3214 29.7378C39.5358 32.169 37.1101 34.0894 34.0446 35.4988C30.9791 36.9083 27.6309 37.6131 24 37.6131C22.8542 37.6131 21.6711 37.531 20.4509 37.367C15.1532 41.0511 12.3334 42.9155 11.9911 42.9602C11.8274 43.0199 11.6711 43.0124 11.5223 42.9379C11.4628 42.8931 11.4181 42.8334 11.3884 42.7588C11.3586 42.6843 11.3438 42.6172 11.3438 42.5575V42.4681C11.4331 41.8863 12.1101 39.4626 13.375 35.1968C10.503 33.765 8.22247 31.867 6.53348 29.5029C4.84449 27.1388 4 24.5696 4 21.7954C4 18.9316 4.89286 16.2878 6.67857 13.8642C8.46429 11.4404 10.8936 9.52376 13.9665 8.11425C17.0394 6.70475 20.3839 6 24 6Z" fill="black"/>
</svg>
