<svg width="18" height="18" viewBox="0 0 18 18" fill="none" xmlns="http://www.w3.org/2000/svg">
<path d="M10.59 3L11.9625 4.5H15V13.5H3V4.5H6.0375L7.41 3H10.59ZM11.25 1.5H6.75L5.3775 3H3C2.175 3 1.5 3.675 1.5 4.5V13.5C1.5 14.325 2.175 15 3 15H15C15.825 15 16.5 14.325 16.5 13.5V4.5C16.5 3.675 15.825 3 15 3H12.6225L11.25 1.5ZM9 6.75C10.2375 6.75 11.25 7.7625 11.25 9C11.25 10.2375 10.2375 11.25 9 11.25C7.7625 11.25 6.75 10.2375 6.75 9C6.75 7.7625 7.7625 6.75 9 6.75ZM9 5.25C6.93 5.25 5.25 6.93 5.25 9C5.25 11.07 6.93 12.75 9 12.75C11.07 12.75 12.75 11.07 12.75 9C12.75 6.93 11.07 5.25 9 5.25Z" fill="#5E0E8C"/>
</svg>
