<svg width="18" height="18" viewBox="0 0 18 18" fill="none" xmlns="http://www.w3.org/2000/svg">
<path d="M2.99175 2.52225C3.03927 2.23608 3.187 1.97612 3.40856 1.78885C3.63011 1.60158 3.91103 1.4992 4.20113 1.5C4.50263 1.5 4.77863 1.608 4.99313 1.78688C5.2258 1.60108 5.51474 1.49992 5.8125 1.5C6.12225 1.5 6.40725 1.60725 6.63188 1.78688C6.85388 1.60102 7.13434 1.49943 7.42388 1.5C7.71397 1.4992 7.9949 1.60158 8.21645 1.78885C8.438 1.97612 8.58573 2.23608 8.63325 2.52225C8.77125 3.36675 9 4.923 9 6C9.00038 6.50653 8.87989 7.00584 8.64855 7.45645C8.41722 7.90706 8.0817 8.29597 7.66988 8.59088C7.42988 8.76338 7.3125 8.97151 7.3125 9.14963C7.3125 9.16388 7.31288 9.17363 7.31363 9.18488C7.34663 9.59588 7.6875 13.863 7.6875 14.625C7.6875 15.1223 7.48996 15.5992 7.13833 15.9508C6.7867 16.3025 6.30978 16.5 5.8125 16.5C5.31522 16.5 4.83831 16.3025 4.48668 15.9508C4.13504 15.5992 3.9375 15.1223 3.9375 14.625C3.9375 13.863 4.27838 9.59588 4.311 9.18488C4.31205 9.17316 4.31255 9.1614 4.3125 9.14963C4.3125 8.97151 4.1955 8.76338 3.95513 8.59088C3.5433 8.29597 3.20779 7.90706 2.97645 7.45645C2.74511 7.00584 2.62462 6.50653 2.625 6C2.625 4.923 2.85375 3.36675 2.99175 2.52225ZM7.125 6.28125C7.125 6.40557 7.07562 6.5248 6.98771 6.61271C6.8998 6.70062 6.78057 6.75 6.65625 6.75C6.53193 6.75 6.4127 6.70062 6.32479 6.61271C6.23689 6.5248 6.1875 6.40557 6.1875 6.28125V2.8125C6.1875 2.71305 6.14799 2.61767 6.07767 2.54734C6.00734 2.47701 5.91196 2.4375 5.8125 2.4375C5.71304 2.4375 5.61766 2.47701 5.54734 2.54734C5.47701 2.61767 5.4375 2.71305 5.4375 2.8125V6.28125C5.4375 6.40557 5.38811 6.5248 5.30021 6.61271C5.2123 6.70062 5.09307 6.75 4.96875 6.75C4.84443 6.75 4.7252 6.70062 4.63729 6.61271C4.54939 6.5248 4.5 6.40557 4.5 6.28125V2.73638C4.5 2.65711 4.46851 2.58109 4.41246 2.52504C4.35641 2.46899 4.28039 2.4375 4.20113 2.4375C4.05563 2.4375 3.93863 2.53988 3.91688 2.67375C3.77813 3.52388 3.5625 5.00963 3.5625 6C3.56213 6.35768 3.64718 6.71026 3.81057 7.02844C3.97396 7.34661 4.21097 7.62116 4.50188 7.82926C4.88438 8.10376 5.25 8.56163 5.25 9.14926C5.25 9.18601 5.24888 9.22051 5.24588 9.25988C5.20988 9.70501 4.875 13.9125 4.875 14.625C4.875 14.8736 4.97377 15.1121 5.14959 15.2879C5.3254 15.4637 5.56386 15.5625 5.8125 15.5625C6.06114 15.5625 6.2996 15.4637 6.47541 15.2879C6.65123 15.1121 6.75 14.8736 6.75 14.625C6.75 13.9125 6.41513 9.70501 6.3795 9.25988C6.37665 9.2232 6.37515 9.18642 6.375 9.14963C6.375 8.56163 6.74063 8.10338 7.12313 7.82926C7.41403 7.62116 7.65104 7.34661 7.81443 7.02844C7.97782 6.71026 8.06287 6.35768 8.0625 6C8.0625 5.00963 7.84688 3.52388 7.70813 2.67375C7.69655 2.60702 7.66158 2.5466 7.60949 2.5033C7.5574 2.46001 7.4916 2.43669 7.42388 2.4375C7.34461 2.4375 7.26859 2.46899 7.21254 2.52504C7.15649 2.58109 7.125 2.65711 7.125 2.73638V6.28125ZM13.6875 2.4495V8.53126C13.6875 8.7525 13.758 9.78 13.8356 10.9069L13.8409 10.9834C13.9459 12.5081 14.0625 14.2091 14.0625 14.625C14.0625 14.8736 13.9637 15.1121 13.7879 15.2879C13.6121 15.4637 13.3736 15.5625 13.125 15.5625C12.8764 15.5625 12.6379 15.4637 12.4621 15.2879C12.2863 15.1121 12.1875 14.8736 12.1875 14.625C12.1875 14.2568 12.2794 12.7553 12.3739 11.3175C12.4293 10.4761 12.4864 9.63489 12.5453 8.79376L12.5614 8.56425C12.5659 8.50007 12.5572 8.43565 12.5357 8.37499C12.5143 8.31433 12.4806 8.25873 12.4367 8.21167C12.3928 8.1646 12.3397 8.12706 12.2807 8.1014C12.2217 8.07574 12.1581 8.0625 12.0938 8.06251H10.9688C10.8942 8.06251 10.8226 8.03287 10.7699 7.98013C10.7171 7.92738 10.6875 7.85585 10.6875 7.78126V5.71875C10.6875 4.89719 10.9957 4.1055 11.5511 3.50018C12.1066 2.89485 12.869 2.51992 13.6875 2.4495ZM11.5913 9.00001L11.5676 9.34201C11.5324 9.85276 11.4851 10.542 11.4386 11.256C11.3456 12.6713 11.25 14.2166 11.25 14.625C11.25 15.1223 11.4475 15.5992 11.7992 15.9508C12.1508 16.3025 12.6277 16.5 13.125 16.5C13.6223 16.5 14.0992 16.3025 14.4508 15.9508C14.8025 15.5992 15 15.1223 15 14.625C15 14.1716 14.8819 12.4523 14.7795 10.968L14.7761 10.9193C14.6944 9.72976 14.625 8.71501 14.625 8.53126V1.96875C14.625 1.71 14.415 1.5 14.1563 1.5H13.9688C11.6389 1.5 9.75 3.38888 9.75 5.71875V7.78126C9.75 8.10449 9.8784 8.41448 10.107 8.64304C10.3355 8.8716 10.6455 9.00001 10.9688 9.00001H11.5913Z" fill="#FF9300"/>
</svg>
