<svg width="18" height="18" viewBox="0 0 18 18" fill="none" xmlns="http://www.w3.org/2000/svg">
<path d="M12 7.5C12 5.8425 10.6575 4.5 9 4.5C7.3425 4.5 6 5.8425 6 7.5C6 9.1575 7.3425 10.5 9 10.5C10.6575 10.5 12 9.1575 12 7.5ZM7.5 7.5C7.5 6.675 8.175 6 9 6C9.825 6 10.5 6.675 10.5 7.5C10.5 8.325 9.825 9 9 9C8.175 9 7.5 8.325 7.5 7.5Z" fill="#1E07F0"/>
<path d="M8.56507 16.3572C8.69257 16.4472 8.85007 16.4997 9.00007 16.4997C9.15007 16.4997 9.30757 16.4547 9.43507 16.3572C9.66007 16.1922 15.0226 12.3297 15.0001 7.49219C15.0001 4.18469 12.3076 1.49219 9.00007 1.49219C5.69257 1.49219 3.00007 4.18469 3.00007 7.49219C2.97757 12.3222 8.34007 16.1922 8.56507 16.3572ZM9.00007 2.99969C11.4826 2.99969 13.5001 5.01719 13.5001 7.49969C13.5151 10.8297 10.2076 13.8222 9.00007 14.8047C7.79257 13.8222 4.48507 10.8372 4.50007 7.49969C4.50007 5.01719 6.51757 2.99969 9.00007 2.99969Z" fill="#1E07F0"/>
</svg>
