<svg width="24" height="24" viewBox="0 0 24 24" fill="none" xmlns="http://www.w3.org/2000/svg">
<path d="M11.293 2.29279C11.4805 2.10532 11.7348 2 12 2C12.2652 2 12.5195 2.10532 12.707 2.29279L15.707 5.29279C15.8892 5.48139 15.99 5.73399 15.9877 5.99619C15.9854 6.25838 15.8802 6.5092 15.6948 6.6946C15.5094 6.88001 15.2586 6.98518 14.9964 6.98746C14.7342 6.98974 14.4816 6.88894 14.293 6.70679L13 5.41379V14.9998C13 15.265 12.8946 15.5194 12.7071 15.7069C12.5196 15.8944 12.2652 15.9998 12 15.9998C11.7348 15.9998 11.4804 15.8944 11.2929 15.7069C11.1054 15.5194 11 15.265 11 14.9998V5.41379L9.707 6.70679C9.5184 6.88894 9.2658 6.98974 9.0036 6.98746C8.7414 6.98518 8.49059 6.88001 8.30518 6.6946C8.11977 6.5092 8.0146 6.25838 8.01233 5.99619C8.01005 5.73399 8.11084 5.48139 8.293 5.29279L11.293 2.29279ZM4 10.9998C4 10.4694 4.21071 9.96065 4.58579 9.58557C4.96086 9.2105 5.46957 8.99979 6 8.99979H8C8.26522 8.99979 8.51957 9.10514 8.70711 9.29268C8.89464 9.48022 9 9.73457 9 9.99979C9 10.265 8.89464 10.5194 8.70711 10.7069C8.51957 10.8944 8.26522 10.9998 8 10.9998H6V19.9998H18V10.9998H16C15.7348 10.9998 15.4804 10.8944 15.2929 10.7069C15.1054 10.5194 15 10.265 15 9.99979C15 9.73457 15.1054 9.48022 15.2929 9.29268C15.4804 9.10514 15.7348 8.99979 16 8.99979H18C18.5304 8.99979 19.0391 9.2105 19.4142 9.58557C19.7893 9.96065 20 10.4694 20 10.9998V19.9998C20 20.5302 19.7893 21.0389 19.4142 21.414C19.0391 21.7891 18.5304 21.9998 18 21.9998H6C5.46957 21.9998 4.96086 21.7891 4.58579 21.414C4.21071 21.0389 4 20.5302 4 19.9998V10.9998Z" fill="#666666"/>
</svg>
