<svg width="18" height="18" viewBox="0 0 18 18" fill="none" xmlns="http://www.w3.org/2000/svg">
<path d="M15.7264 5.51562H12.9484V5.23438C12.9484 3.44844 11.2653 2 9.19 2C7.1147 2 5.43159 3.44844 5.43159 5.23438V5.51562H2.65364C2.29209 5.51562 2 5.76699 2 6.07812V15.5C2 15.8111 2.29209 16.0625 2.65364 16.0625H15.7264C16.0879 16.0625 16.38 15.8111 16.38 15.5V6.07812C16.38 5.76699 16.0879 5.51562 15.7264 5.51562ZM6.90227 5.23438C6.90227 4.14629 7.92562 3.26562 9.19 3.26562C10.4544 3.26562 11.4777 4.14629 11.4777 5.23438V5.51562H6.90227V5.23438ZM14.9093 14.7969H3.47068V6.78125H5.43159V8.32812C5.43159 8.40547 5.50513 8.46875 5.595 8.46875H6.73886C6.82874 8.46875 6.90227 8.40547 6.90227 8.32812V6.78125H11.4777V8.32812C11.4777 8.40547 11.5513 8.46875 11.6411 8.46875H12.785C12.8749 8.46875 12.9484 8.40547 12.9484 8.32812V6.78125H14.9093V14.7969Z" fill="#00B173"/>
</svg>
